<svg xmlns="http://www.w3.org/2000/svg" version="1.1" xmlns:xlink="http://www.w3.org/1999/xlink" xmlns:svgjs="http://svgjs.dev/svgjs" width="600" height="300" viewBox="0 0 660.8640014648437 300" class="svg-animations " style="background-color: rgb(255, 122, 41);"><svg viewBox="0 0 133.99880981445312 138.99441528320312" width="120" height="120" x="55.07200012207028" y="90" style="fill: rgb(255, 255, 255);"><svg width="134" height="134" viewBox="0 0 134 134" xmlns="http://www.w3.org/2000/svg">
	<g clip-path="url(#clip0)">
	<path d="M29.0904 46.1547C29.0904 46.1547 18.2611 30.5397 10.9648 32.177C6.34874 33.2324 4.62957 44.6122 29.0904 46.1547Z"></path>
	<path d="M66.0999 23.7607C66.0999 23.7607 74.2219 6.57602 69.1456 1.08233C65.9239 -2.3952 55.2163 1.81302 66.0999 23.7607Z"></path>
	<path d="M104.003 44.5987C104.003 44.5987 122.954 43.0426 125.174 35.8981C126.582 31.3651 117.58 24.1936 104.003 44.5987Z"></path>
	<path d="M104.909 87.8311C104.909 87.8311 115.739 103.446 123.035 101.809C127.665 100.767 129.37 89.3871 104.909 87.8311Z"></path>
	<path d="M67.9001 110.226C67.9001 110.226 59.7781 127.41 64.8544 132.904C68.0761 136.395 78.7972 132.173 67.9001 110.226Z"></path>
	<path d="M29.9972 89.3872C29.9972 89.3872 11.0458 90.9433 8.82581 98.0878C7.41799 102.621 16.4199 109.792 29.9972 89.3872Z"></path>
	<path d="M29.0904 46.1547C29.0904 46.1547 18.2611 30.5397 10.9648 32.177C6.34874 33.2324 4.62957 44.6122 29.0904 46.1547Z"></path>
	<path d="M66.0999 23.7607C66.0999 23.7607 74.2219 6.57602 69.1456 1.08233C65.9239 -2.3952 55.2163 1.81302 66.0999 23.7607Z"></path>
	<path d="M104.003 44.5987C104.003 44.5987 122.954 43.0426 125.174 35.8981C126.582 31.3651 117.58 24.1936 104.003 44.5987Z"></path>
	<path d="M104.909 87.8311C104.909 87.8311 115.739 103.446 123.035 101.809C127.665 100.767 129.37 89.3871 104.909 87.8311Z"></path>
	<path d="M67.9001 110.226C67.9001 110.226 59.7781 127.41 64.8544 132.904C68.0761 136.395 78.7972 132.173 67.9001 110.226Z"></path>
	<path d="M43.8591 30.4588C43.8591 30.4588 41.9233 11.5557 34.7353 9.47185C30.187 8.15932 23.1885 17.3064 43.8591 30.4588Z"></path>
	<path d="M87.0818 28.6997C87.0818 28.6997 102.487 17.577 100.7 10.3107C99.5626 5.69654 88.1512 4.22163 87.0818 28.6997Z"></path>
	<path d="M110.229 65.234C110.229 65.234 127.57 73.0145 132.971 67.832C136.382 64.5439 131.969 53.9084 110.229 65.234Z"></path>
	<path d="M90.1409 103.527C90.1409 103.527 92.0766 122.431 99.2646 124.514C103.827 125.84 110.825 116.693 90.1409 103.527Z"></path>
	<path d="M46.9184 105.3C46.9184 105.3 31.5136 116.423 33.3005 123.689C34.4376 128.29 45.8626 129.778 46.9184 105.3Z"></path>
	<path d="M23.784 68.7656C23.784 68.7656 6.4435 60.9852 1.04234 66.1676C-2.38245 69.4557 2.04406 80.0777 23.784 68.7656Z"></path>
	<path d="M43.8591 30.4588C43.8591 30.4588 41.9233 11.5557 34.7353 9.47185C30.187 8.15932 23.1885 17.3064 43.8591 30.4588Z"></path>
	<path d="M87.0818 28.6997C87.0818 28.6997 102.487 17.577 100.7 10.3107C99.5626 5.69654 88.1512 4.22163 87.0818 28.6997Z"></path>
	<path d="M110.229 65.234C110.229 65.234 127.57 73.0145 132.971 67.832C136.382 64.5439 131.969 53.9084 110.229 65.234Z"></path>
	<path d="M90.1409 103.527C90.1409 103.527 92.0766 122.431 99.2646 124.514C103.827 125.84 110.825 116.693 90.1409 103.527Z"></path>
	<path d="M46.9184 105.3C46.9184 105.3 31.5136 116.423 33.3005 123.689C34.4376 128.29 45.8626 129.778 46.9184 105.3Z"></path>
	<path d="M70.7024 29.6605C50.6003 28.118 33.0432 43.1647 31.5 63.2586C31.0127 69.6183 32.1904 75.7074 34.6541 81.1199C34.6541 81.1334 34.6676 81.1469 34.6676 81.1605C34.7353 81.3228 34.8165 81.4717 34.8842 81.6205C34.9654 81.7964 35.0602 81.9859 35.1414 82.1618C35.358 82.5948 35.5746 83.0142 35.8047 83.4473C35.8995 83.6232 36.0078 83.7991 36.1025 83.975C36.292 84.2997 36.4816 84.6245 36.6711 84.9357C36.7658 85.0845 36.847 85.2334 36.9283 85.3687C37.1855 85.7882 37.4562 86.1941 37.7405 86.6C37.8488 86.7624 37.9571 86.9248 38.0789 87.0872C38.3361 87.439 38.5933 87.7908 38.8505 88.1426C38.9452 88.2779 39.0535 88.3997 39.1483 88.535C39.419 88.8868 39.7033 89.2251 39.9876 89.5634C40.0959 89.6987 40.2177 89.834 40.3395 89.9693C40.6779 90.3482 41.0164 90.7271 41.3683 91.1059C41.3954 91.133 41.4089 91.1601 41.436 91.1736V91.1601C47.4463 97.4927 55.7308 101.701 65.1117 102.432C70.5264 102.851 75.738 102.039 80.5165 100.28C80.5571 100.267 80.5842 100.267 80.6248 100.253C80.7331 100.212 80.8278 100.172 80.9226 100.131C81.1933 100.023 81.4641 99.9148 81.7213 99.8065C82.1138 99.6442 82.5064 99.4818 82.899 99.3059C83.0343 99.2382 83.1832 99.1841 83.3321 99.1164C83.3186 99.1164 83.3051 99.1164 83.2915 99.1164C91.5354 95.2736 98.1684 88.4538 101.674 79.9156C104.097 73.1229 103.542 65.4642 103.542 65.4642C101.525 82.8789 79.7314 90.1452 65.6126 86.167C50.5056 81.9182 50.3567 72.3652 50.641 69.483C50.7357 67.8187 51.0335 66.1949 51.5479 64.6659C56.7731 49.1591 69.105 50.5392 72.3809 51.2158C74.7905 51.96 75.0206 53.0831 75.8328 54.2062C81.3422 61.7161 69.2404 78.5219 54.1334 66.222C54.1334 66.222 58.1538 82.5948 76.997 82.906C93.5659 83.1902 106.345 64.1382 99.2107 47.2782C93.3222 37.4816 82.9666 30.5942 70.7024 29.6605Z"></path>
	</g>
	</svg></svg><svg x="185.07200012207028" y="129.8799991607666" style="fill: rgb(255, 255, 255);"><path d="M8.75 28.66L8.75 28.66Q16.21 31.25 19.93 32.18Q23.66 33.11 26.34 33.11Q29.02 33.11 32.24 31.89L32.24 31.89L32.41 32.16Q28.14 35.11 23.80 35.11L23.80 35.11Q19.36 35.11 13.69 32.34L13.69 32.34Q9.31 30.17 8.26 29.71L8.26 29.71Q4.52 28.04 2.10 28L2.10 28L2.10 27.65L2.56 27.65Q3.47 27.65 4.11 27.02Q4.76 26.39 4.80 25.45L4.80 25.45L4.80 6.05Q4.76 5.14 4.11 4.50Q3.47 3.85 2.56 3.85L2.56 3.85L2.10 3.85L2.10 3.50L9.77 3.50L9.77 3.85L9.31 3.85Q8.40 3.85 7.74 4.50Q7.07 5.14 7.07 6.05L7.07 6.05L7.07 26.25Q7.07 26.88 7.14 27.21Q7.21 27.55 7.60 27.96Q7.98 28.39 8.75 28.66ZM16.14 27.65L16.59 27.65Q17.50 27.65 18.15 27.00Q18.80 26.36 18.83 25.45L18.83 25.45L18.83 5.84Q18.83 5.00 18.17 4.43Q17.50 3.85 16.59 3.85L16.59 3.85L16.17 3.85L16.14 3.50L26.39 3.50Q27.48 3.50 28.75 3.29Q30.03 3.08 30.56 2.87L30.56 2.87L30.56 7.28L30.21 7.28L30.21 6.65Q30.21 5.81 29.63 5.21Q29.05 4.62 28.25 4.58L28.25 4.58L21.11 4.58L21.11 15.40L27.02 15.40Q27.72 15.36 28.21 14.87Q28.70 14.38 28.70 13.65L28.70 13.65L28.70 13.16L29.05 13.16L29.05 18.69L28.70 18.69L28.70 18.16Q28.70 17.46 28.23 16.98Q27.76 16.48 27.06 16.45L27.06 16.45L21.11 16.45L21.11 26.91L26.11 26.91Q28.70 26.91 30.07 25.76Q31.43 24.61 32.34 22.33L32.34 22.33L32.69 22.33L30.66 28L16.14 28L16.14 27.65ZM59.26 27.65L59.26 27.65L59.54 27.65L59.54 28L51.66 28L51.66 27.65L51.98 27.65Q52.71 27.65 53.08 27.18Q53.45 26.70 53.45 26.29Q53.45 25.86 53.31 25.45L53.31 25.45L51.07 19.49L41.62 19.49L39.27 25.48Q39.13 25.90 39.13 26.30Q39.13 26.70 39.50 27.18Q39.87 27.65 40.60 27.65L40.60 27.65L40.92 27.65L40.92 28L33.88 28L33.88 27.65L34.20 27.65Q35.07 27.65 35.91 27.09Q36.75 26.53 37.28 25.45L37.28 25.45L45.19 6.61Q46.48 3.78 46.48 3.01L46.48 3.01L46.80 3.01L56.18 25.45Q56.67 26.53 57.51 27.09Q58.35 27.65 59.26 27.65ZM46.45 7.21L42.04 18.45L50.65 18.45L46.45 7.21ZM68.46 4.58L68.46 4.58L66.22 4.58L66.22 25.45Q66.22 26.36 66.87 27.00Q67.52 27.65 68.46 27.65L68.46 27.65L68.88 27.65L68.92 28L61.25 28L61.25 27.65L61.71 27.65Q62.62 27.65 63.26 27.02Q63.91 26.39 63.95 25.48L63.95 25.48L63.95 6.05Q63.91 5.14 63.26 4.50Q62.62 3.85 61.71 3.85L61.71 3.85L61.25 3.85L61.25 3.50L70.70 3.50Q73.89 3.50 75.71 5.27Q77.53 7.03 77.53 9.85Q77.53 12.67 75.79 14.72Q74.06 16.77 71.58 16.77L71.58 16.77Q72.10 17.01 72.82 17.73Q73.54 18.45 74.10 19.21L74.10 19.21Q77.11 23.52 78.02 24.52Q78.93 25.52 79.31 25.88Q79.70 26.25 80.15 26.60Q80.61 26.95 81.06 27.16L81.06 27.16Q82.08 27.65 83.23 27.65L83.23 27.65L83.23 28L81.31 28Q79.80 28 78.51 27.46Q77.21 26.91 76.56 26.34Q75.92 25.76 75.44 25.22Q74.97 24.68 72.84 21.59Q70.70 18.52 70.35 18.08Q70 17.64 69.62 17.22L69.62 17.22Q68.50 16.03 67.38 16.03L67.38 16.03L67.38 15.68Q67.66 15.71 68.11 15.71Q68.57 15.71 69.23 15.68L69.23 15.68Q73.57 15.57 74.69 12.04L74.69 12.04Q74.90 11.34 74.90 10.73Q74.90 10.11 74.90 9.94L74.90 9.94Q74.83 7.59 73.68 6.16Q72.52 4.72 70.56 4.62L70.56 4.62Q69.72 4.58 68.46 4.58ZM110.71 3.85L110.08 3.85Q109.20 3.85 108.57 4.46Q107.94 5.07 107.91 5.95L107.91 5.95L107.91 24.01Q107.91 26.04 108.15 27.86L108.15 27.86L108.22 28.49L107.91 28.49L88.83 8.12L88.83 25.55Q88.83 26.43 89.46 27.04Q90.09 27.65 90.97 27.65L90.97 27.65L91.63 27.65L91.63 28L84.42 28L84.42 27.65L85.09 27.65Q85.96 27.65 86.59 27.04Q87.22 26.43 87.22 25.52L87.22 25.52L87.22 7.35Q87.22 5.21 86.98 3.53L86.98 3.53L86.91 2.97L87.26 2.97L106.33 23.34L106.33 5.98Q106.30 5.07 105.67 4.46Q105.04 3.85 104.16 3.85L104.16 3.85L103.50 3.85L103.50 3.50L110.71 3.50L110.71 3.85ZM118.09 33.11L118.23 32.73Q119.18 33.04 120.10 33.04Q121.03 33.04 122.05 32.66Q123.06 32.27 123.90 31.45Q124.74 30.63 125.28 28.98Q125.83 27.34 125.83 25.09L125.83 25.09L125.83 6.05Q125.79 5.14 125.14 4.50Q124.50 3.85 123.59 3.85L123.59 3.85L123.13 3.85L123.13 3.50L130.80 3.50L130.80 3.85L130.34 3.85Q129.43 3.85 128.78 4.48Q128.14 5.11 128.10 6.05L128.10 6.05L128.10 25.20Q128.10 27.58 127.37 29.37Q126.63 31.15 125.51 32.06L125.51 32.06Q123.41 33.70 120.86 33.70L120.86 33.70Q119.35 33.70 118.09 33.11L118.09 33.11ZM157.22 27.65L157.22 27.65L157.50 27.65L157.50 28L149.63 28L149.63 27.65L149.94 27.65Q150.68 27.65 151.04 27.18Q151.41 26.70 151.41 26.29Q151.41 25.86 151.27 25.45L151.27 25.45L149.03 19.49L139.58 19.49L137.24 25.48Q137.10 25.90 137.10 26.30Q137.10 26.70 137.46 27.18Q137.83 27.65 138.57 27.65L138.57 27.65L138.88 27.65L138.88 28L131.85 28L131.85 27.65L132.16 27.65Q133.04 27.65 133.88 27.09Q134.72 26.53 135.24 25.45L135.24 25.45L143.15 6.61Q144.45 3.78 144.45 3.01L144.45 3.01L144.76 3.01L154.14 25.45Q154.63 26.53 155.47 27.09Q156.31 27.65 157.22 27.65ZM144.41 7.21L140.00 18.45L148.61 18.45L144.41 7.21ZM170.56 28.49Q164.96 28.45 161.47 24.95Q157.99 21.45 157.99 15.75Q157.99 10.04 161.47 6.53Q164.96 3.01 170.56 3.01L170.56 3.01Q175.39 3.01 179.06 5.39L179.06 5.39L179.76 10.32L179.45 10.32Q178.68 7.31 176.35 5.69Q174.02 4.06 170.56 4.06L170.56 4.06Q166.11 4.06 163.36 7.28Q160.62 10.50 160.62 15.75Q160.62 21 163.36 24.20Q166.11 27.41 170.56 27.44L170.56 27.44Q172.83 27.44 174.88 26.63Q176.93 25.83 178.47 24.39L178.47 24.39L178.47 18.20Q178.47 17.43 177.99 17.03Q177.52 16.63 176.68 16.63L176.68 16.63L176.12 16.63L176.12 16.27L182.98 16.27L182.98 16.63L182.46 16.63Q181.58 16.63 181.13 17.03Q180.67 17.43 180.71 18.20L180.71 18.20L180.71 23.98Q179.80 25.16 178.54 26.11Q177.28 27.05 175.16 27.77Q173.04 28.49 170.56 28.49L170.56 28.49ZM208.67 27.65L208.67 27.65L208.95 27.65L208.95 28L201.08 28L201.08 27.65L201.39 27.65Q202.13 27.65 202.49 27.18Q202.86 26.70 202.86 26.29Q202.86 25.86 202.72 25.45L202.72 25.45L200.48 19.49L191.03 19.49L188.69 25.48Q188.55 25.90 188.55 26.30Q188.55 26.70 188.91 27.18Q189.28 27.65 190.02 27.65L190.02 27.65L190.33 27.65L190.33 28L183.30 28L183.30 27.65L183.61 27.65Q184.49 27.65 185.33 27.09Q186.17 26.53 186.69 25.45L186.69 25.45L194.60 6.61Q195.90 3.78 195.90 3.01L195.90 3.01L196.21 3.01L205.59 25.45Q206.08 26.53 206.92 27.09Q207.76 27.65 208.67 27.65ZM195.86 7.21L191.45 18.45L200.06 18.45L195.86 7.21ZM227.25 27.65L227.71 27.65Q228.62 27.65 229.27 27.00Q229.91 26.36 229.95 25.48L229.95 25.48L229.95 16.41L215.63 16.41L215.63 25.48Q215.63 26.39 216.30 27.02Q216.97 27.65 217.88 27.65L217.88 27.65L218.33 27.65L218.33 28L210.66 28L210.66 27.65L211.12 27.65Q212.03 27.65 212.68 27.02Q213.32 26.39 213.36 25.48L213.36 25.48L213.36 6.02Q213.32 5.11 212.68 4.48Q212.03 3.85 211.12 3.85L211.12 3.85L210.66 3.85L210.66 3.50L218.33 3.50L218.33 3.85L217.88 3.85Q216.97 3.85 216.32 4.48Q215.67 5.11 215.63 6.02L215.63 6.02L215.63 15.36L229.95 15.36L229.95 6.02Q229.91 4.76 228.83 4.13L228.83 4.13Q228.31 3.85 227.71 3.85L227.71 3.85L227.25 3.85L227.25 3.50L234.92 3.50L234.92 3.85L234.47 3.85Q233.56 3.85 232.91 4.50Q232.26 5.14 232.22 6.05L232.22 6.05L232.22 25.48Q232.26 26.39 232.91 27.02Q233.56 27.65 234.47 27.65L234.47 27.65L234.92 27.65L234.92 28L227.25 28L227.25 27.65ZM273.67 15.71L273.67 15.71Q273.67 21.73 270.43 25.11Q267.19 28.49 261.28 28.49L261.28 28.49Q257.29 28.49 254.08 26.81Q250.88 25.13 249.11 22.23Q247.34 19.32 247.34 15.73Q247.34 12.14 249.09 9.24Q250.84 6.33 253.93 4.67Q257.00 3.01 260.79 3.01L260.79 3.01Q263.17 3.01 265.63 3.66Q268.10 4.30 269.75 5.39L269.75 5.39L270.44 10.32L270.13 10.32Q269.40 7.38 266.74 5.72Q264.07 4.06 260.82 4.06L260.82 4.06Q256.17 4.06 253.07 7.37Q249.97 10.67 249.97 15.68Q249.97 20.68 253.17 24.06Q256.38 27.44 261.56 27.44Q266.74 27.44 270.01 24.08Q273.28 20.72 273.28 14.87L273.28 14.87L273.63 14.87Q273.67 15.29 273.67 15.71ZM280.49 6.53Q284.23 3.01 290.20 3.01Q296.17 3.01 299.91 6.53Q303.66 10.04 303.66 15.75Q303.66 21.45 299.91 24.97Q296.17 28.49 290.20 28.49Q284.23 28.49 280.49 24.97Q276.74 21.45 276.74 15.75Q276.74 10.04 280.49 6.53ZM282.40 24.22Q285.35 27.44 290.18 27.44Q295.01 27.44 297.97 24.22Q300.93 21 300.93 15.75Q300.93 10.50 297.97 7.28Q295.01 4.06 290.18 4.06Q285.35 4.06 282.40 7.28Q279.44 10.50 279.44 15.75Q279.44 21 282.40 24.22ZM306.43 27.65L306.88 27.65Q307.79 27.65 308.44 27.00Q309.08 26.36 309.12 25.45L309.12 25.45L309.12 6.05Q309.08 5.14 308.44 4.50Q307.79 3.85 306.88 3.85L306.88 3.85L306.43 3.85L306.43 3.50L314.09 3.50L314.09 3.85L313.63 3.85Q312.38 3.85 311.71 4.93L311.71 4.93Q311.39 5.46 311.39 6.05L311.39 6.05L311.39 26.91L316.40 26.91Q318.99 26.91 320.36 25.76Q321.72 24.61 322.63 22.33L322.63 22.33L322.98 22.33L320.95 28L306.43 28L306.43 27.65ZM325.57 27.65L326.03 27.65Q326.94 27.65 327.58 27.00Q328.23 26.36 328.27 25.45L328.27 25.45L328.27 6.05Q328.23 5.14 327.58 4.50Q326.94 3.85 326.03 3.85L326.03 3.85L325.57 3.85L325.57 3.50L333.24 3.50L333.24 3.85L332.78 3.85Q331.52 3.85 330.86 4.93L330.86 4.93Q330.54 5.46 330.54 6.05L330.54 6.05L330.54 26.91L335.55 26.91Q338.14 26.91 339.50 25.76Q340.87 24.61 341.78 22.33L341.78 22.33L342.13 22.33L340.10 28L325.57 28L325.57 27.65ZM344.72 27.65L345.17 27.65Q346.08 27.65 346.73 27.00Q347.38 26.36 347.41 25.45L347.41 25.45L347.41 5.84Q347.41 5.00 346.75 4.43Q346.08 3.85 345.17 3.85L345.17 3.85L344.75 3.85L344.72 3.50L354.97 3.50Q356.06 3.50 357.33 3.29Q358.61 3.08 359.14 2.87L359.14 2.87L359.14 7.28L358.79 7.28L358.79 6.65Q358.79 5.81 358.21 5.21Q357.63 4.62 356.83 4.58L356.83 4.58L349.69 4.58L349.69 15.40L355.60 15.40Q356.30 15.36 356.79 14.87Q357.28 14.38 357.28 13.65L357.28 13.65L357.28 13.16L357.63 13.16L357.63 18.69L357.28 18.69L357.28 18.16Q357.28 17.46 356.81 16.98Q356.34 16.48 355.64 16.45L355.64 16.45L349.69 16.45L349.69 26.91L354.69 26.91Q357.28 26.91 358.65 25.76Q360.01 24.61 360.92 22.33L360.92 22.33L361.27 22.33L359.24 28L344.72 28L344.72 27.65ZM376.78 28.49Q371.18 28.45 367.69 24.95Q364.21 21.45 364.21 15.75Q364.21 10.04 367.69 6.53Q371.18 3.01 376.78 3.01L376.78 3.01Q381.61 3.01 385.28 5.39L385.28 5.39L385.98 10.32L385.67 10.32Q384.90 7.31 382.57 5.69Q380.24 4.06 376.78 4.06L376.78 4.06Q372.33 4.06 369.58 7.28Q366.84 10.50 366.84 15.75Q366.84 21 369.58 24.20Q372.33 27.41 376.78 27.44L376.78 27.44Q379.05 27.44 381.10 26.63Q383.15 25.83 384.69 24.39L384.69 24.39L384.69 18.20Q384.69 17.43 384.21 17.03Q383.74 16.63 382.90 16.63L382.90 16.63L382.34 16.63L382.34 16.27L389.20 16.27L389.20 16.63L388.68 16.63Q387.80 16.63 387.35 17.03Q386.89 17.43 386.93 18.20L386.93 18.20L386.93 23.98Q386.02 25.16 384.76 26.11Q383.50 27.05 381.38 27.77Q379.26 28.49 376.78 28.49L376.78 28.49ZM391.27 27.65L391.72 27.65Q392.63 27.65 393.28 27.00Q393.93 26.36 393.96 25.45L393.96 25.45L393.96 5.84Q393.96 5.00 393.30 4.43Q392.63 3.85 391.72 3.85L391.72 3.85L391.30 3.85L391.27 3.50L401.52 3.50Q402.61 3.50 403.88 3.29Q405.16 3.08 405.69 2.87L405.69 2.87L405.69 7.28L405.34 7.28L405.34 6.65Q405.34 5.81 404.76 5.21Q404.18 4.62 403.38 4.58L403.38 4.58L396.24 4.58L396.24 15.40L402.15 15.40Q402.85 15.36 403.34 14.87Q403.83 14.38 403.83 13.65L403.83 13.65L403.83 13.16L404.18 13.16L404.18 18.69L403.83 18.69L403.83 18.16Q403.83 17.46 403.36 16.98Q402.89 16.48 402.19 16.45L402.19 16.45L396.24 16.45L396.24 26.91L401.24 26.91Q403.83 26.91 405.20 25.76Q406.56 24.61 407.47 22.33L407.47 22.33L407.82 22.33L405.79 28L391.27 28L391.27 27.65Z"></path></svg><svg x="227.05700073242184" y="170.1200008392334" style="fill: rgb(255, 255, 255);"><path d="M2.18 0.97L2.12 0.79Q3.29 0.30 4.37 0.30L4.37 0.30Q5.27 0.30 6.23 0.97L6.23 0.97Q6.75 1.33 7.40 2.37L7.40 2.37Q7.83 3.09 8.50 4.98L8.50 4.98L10.69 11.21Q11.45 13.30 12.23 14.53Q13.01 15.76 13.66 16.39Q14.31 17.01 15.01 17.26Q15.71 17.51 16.17 17.51Q16.63 17.51 16.99 17.44L16.99 17.44L17.01 17.62Q16.15 17.91 15.32 17.91Q14.49 17.91 13.66 17.48Q12.83 17.06 12.11 16.30L12.11 16.30Q10.57 14.74 9.49 11.53L9.49 11.53L8.78 9.48L3.85 9.48L2.61 12.69Q2.52 12.90 2.52 13.12Q2.52 13.33 2.71 13.58Q2.90 13.82 3.29 13.82L3.29 13.82L3.44 13.82L3.44 14L-0.18 14L-0.18 13.82L-0.02 13.82Q0.41 13.82 0.83 13.56Q1.24 13.30 1.51 12.78L1.51 12.78L5.98 2.08Q5.00 0.70 3.56 0.70L3.56 0.70Q2.92 0.70 2.18 0.97L2.18 0.97ZM6.43 2.86L4.05 8.94L8.60 8.94L7.18 4.75Q6.77 3.54 6.43 2.86L6.43 2.86ZM24.86 14.25Q21.98 14.23 20.19 12.43Q18.40 10.63 18.40 7.70Q18.40 4.77 20.19 2.96Q21.98 1.15 24.86 1.15L24.86 1.15Q27.34 1.15 29.23 2.37L29.23 2.37L29.59 4.91L29.43 4.91Q29.03 3.36 27.84 2.52Q26.64 1.69 24.86 1.69L24.86 1.69Q22.57 1.69 21.16 3.34Q19.75 5.00 19.75 7.70Q19.75 10.40 21.16 12.05Q22.57 13.69 24.86 13.71L24.86 13.71Q26.03 13.71 27.08 13.30Q28.13 12.88 28.93 12.15L28.93 12.15L28.93 8.96Q28.93 8.56 28.68 8.36Q28.44 8.15 28.01 8.15L28.01 8.15L27.72 8.15L27.72 7.97L31.25 7.97L31.25 8.15L30.98 8.15Q30.53 8.15 30.29 8.36Q30.06 8.56 30.08 8.96L30.08 8.96L30.08 11.93Q29.61 12.54 28.96 13.03Q28.31 13.51 27.23 13.88Q26.14 14.25 24.86 14.25L24.86 14.25ZM36.02 1.96L36.02 1.96L34.87 1.96L34.87 12.69Q34.87 13.15 35.20 13.49Q35.53 13.82 36.02 13.82L36.02 13.82L36.23 13.82L36.25 14L32.31 14L32.31 13.82L32.54 13.82Q33.01 13.82 33.35 13.50Q33.68 13.17 33.70 12.70L33.70 12.70L33.70 2.71Q33.68 2.25 33.35 1.91Q33.01 1.58 32.54 1.58L32.54 1.58L32.31 1.58L32.31 1.40L37.17 1.40Q38.81 1.40 39.74 2.31Q40.68 3.22 40.68 4.67Q40.68 6.12 39.79 7.17Q38.90 8.22 37.62 8.22L37.62 8.22Q37.89 8.35 38.26 8.72Q38.63 9.09 38.92 9.48L38.92 9.48Q40.46 11.70 40.93 12.21Q41.40 12.72 41.60 12.91Q41.80 13.10 42.03 13.28Q42.26 13.46 42.50 13.57L42.50 13.57Q43.02 13.82 43.61 13.82L43.61 13.82L43.61 14L42.62 14Q41.85 14 41.18 13.72Q40.52 13.44 40.19 13.14Q39.85 12.85 39.61 12.57Q39.37 12.29 38.27 10.71Q37.17 9.12 36.99 8.90Q36.81 8.67 36.61 8.46L36.61 8.46Q36.04 7.84 35.46 7.84L35.46 7.84L35.46 7.66Q35.60 7.68 35.84 7.68Q36.07 7.68 36.41 7.66L36.41 7.66Q38.65 7.61 39.22 5.79L39.22 5.79Q39.33 5.43 39.33 5.12Q39.33 4.80 39.33 4.71L39.33 4.71Q39.29 3.51 38.70 2.77Q38.11 2.03 37.10 1.98L37.10 1.98Q36.67 1.96 36.02 1.96ZM43.96 13.82L44.19 13.82Q44.66 13.82 44.99 13.49Q45.32 13.15 45.34 12.69L45.34 12.69L45.34 2.61Q45.34 2.17 45.00 1.88Q44.66 1.58 44.19 1.58L44.19 1.58L43.97 1.58L43.96 1.40L49.23 1.40Q49.79 1.40 50.45 1.29Q51.10 1.18 51.37 1.08L51.37 1.08L51.37 3.34L51.19 3.34L51.19 3.02Q51.19 2.59 50.90 2.28Q50.60 1.98 50.18 1.96L50.18 1.96L46.51 1.96L46.51 7.52L49.55 7.52Q49.91 7.50 50.17 7.25Q50.42 7.00 50.42 6.62L50.42 6.62L50.42 6.37L50.60 6.37L50.60 9.21L50.42 9.21L50.42 8.94Q50.42 8.58 50.18 8.33Q49.93 8.08 49.57 8.06L49.57 8.06L46.51 8.06L46.51 13.44L49.09 13.44Q50.42 13.44 51.12 12.85Q51.82 12.25 52.29 11.08L52.29 11.08L52.47 11.08L51.43 14L43.96 14L43.96 13.82ZM66.13 13.82L66.13 13.82L66.28 13.82L66.28 14L62.23 14L62.23 13.82L62.39 13.82Q62.77 13.82 62.96 13.58Q63.14 13.33 63.14 13.12Q63.14 12.90 63.07 12.69L63.07 12.69L61.92 9.63L57.06 9.63L55.85 12.70Q55.78 12.92 55.78 13.13Q55.78 13.33 55.97 13.58Q56.16 13.82 56.54 13.82L56.54 13.82L56.70 13.82L56.70 14L53.08 14L53.08 13.82L53.24 13.82Q53.69 13.82 54.13 13.53Q54.56 13.24 54.83 12.69L54.83 12.69L58.90 3.00Q59.56 1.54 59.56 1.15L59.56 1.15L59.72 1.15L64.55 12.69Q64.80 13.24 65.23 13.53Q65.66 13.82 66.13 13.82ZM59.54 3.31L57.28 9.09L61.70 9.09L59.54 3.31ZM75.42 3.31L75.42 3.00Q75.42 2.57 75.11 2.25Q74.81 1.94 74.39 1.92L74.39 1.92L70.97 1.92L70.97 12.70Q70.99 13.17 71.33 13.50Q71.66 13.82 72.13 13.82L72.13 13.82L72.36 13.82L72.36 14L68.42 14L68.42 13.82L68.65 13.82Q69.12 13.82 69.45 13.50Q69.79 13.17 69.80 12.72L69.80 12.72L69.80 1.92L66.38 1.92Q65.95 1.94 65.66 2.25Q65.36 2.57 65.36 3.00L65.36 3.00L65.36 3.31L65.18 3.33L65.18 1.06Q65.45 1.17 66.11 1.27Q66.78 1.38 67.34 1.38L67.34 1.38L73.42 1.38Q74.30 1.38 74.89 1.25Q75.47 1.11 75.60 1.06L75.60 1.06L75.60 3.33L75.42 3.31ZM87.95 14.25Q85.10 14.23 83.31 12.43Q81.52 10.63 81.52 7.69Q81.52 4.75 83.31 2.95Q85.10 1.15 88.06 1.15L88.06 1.15Q90.47 1.15 92.32 2.37L92.32 2.37L92.68 4.91L92.52 4.91Q92.12 3.36 90.92 2.52Q89.71 1.69 88.06 1.69L88.06 1.69Q85.70 1.69 84.29 3.33Q82.87 4.96 82.87 7.66Q82.87 10.36 84.27 12.01Q85.66 13.66 87.95 13.71L87.95 13.71Q89.96 13.71 91.31 12.61L91.31 12.61Q92.77 11.43 93.08 8.74L93.08 8.74L93.22 8.74L93.01 11.57Q91.37 14.25 87.95 14.25L87.95 14.25ZM103.73 13.82L103.97 13.82Q104.44 13.82 104.77 13.49Q105.10 13.15 105.12 12.70L105.12 12.70L105.12 8.04L97.76 8.04L97.76 12.70Q97.76 13.17 98.10 13.50Q98.44 13.82 98.91 13.82L98.91 13.82L99.14 13.82L99.14 14L95.20 14L95.20 13.82L95.44 13.82Q95.90 13.82 96.24 13.50Q96.57 13.17 96.59 12.70L96.59 12.70L96.59 2.70Q96.57 2.23 96.24 1.90Q95.90 1.58 95.44 1.58L95.44 1.58L95.20 1.58L95.20 1.40L99.14 1.40L99.14 1.58L98.91 1.58Q98.44 1.58 98.11 1.90Q97.78 2.23 97.76 2.70L97.76 2.70L97.76 7.50L105.12 7.50L105.12 2.70Q105.10 2.05 104.54 1.72L104.54 1.72Q104.27 1.58 103.97 1.58L103.97 1.58L103.73 1.58L103.73 1.40L107.68 1.40L107.68 1.58L107.44 1.58Q106.97 1.58 106.64 1.91Q106.31 2.25 106.29 2.71L106.29 2.71L106.29 12.70Q106.31 13.17 106.64 13.50Q106.97 13.82 107.44 13.82L107.44 13.82L107.68 13.82L107.68 14L103.73 14L103.73 13.82ZM111.04 2.96Q112.97 1.15 116.04 1.15Q119.11 1.15 121.03 2.96Q122.96 4.77 122.96 7.70Q122.96 10.63 121.03 12.44Q119.11 14.25 116.04 14.25Q112.97 14.25 111.04 12.44Q109.12 10.63 109.12 7.70Q109.12 4.77 111.04 2.96ZM112.02 12.06Q113.54 13.71 116.03 13.71Q118.51 13.71 120.03 12.06Q121.55 10.40 121.55 7.70Q121.55 5.00 120.03 3.34Q118.51 1.69 116.03 1.69Q113.54 1.69 112.02 3.34Q110.50 5.00 110.50 7.70Q110.50 10.40 112.02 12.06ZM124.38 13.82L124.61 13.82Q125.08 13.82 125.42 13.49Q125.75 13.15 125.77 12.69L125.77 12.69L125.77 2.70Q125.75 2.23 125.42 1.90Q125.08 1.58 124.61 1.58L124.61 1.58L124.38 1.58L124.38 1.40L128.32 1.40L128.32 1.58L128.09 1.58Q127.62 1.58 127.29 1.90Q126.95 2.23 126.94 2.70L126.94 2.70L126.94 12.69Q126.94 13.15 127.28 13.49Q127.62 13.82 128.09 13.82L128.09 13.82L128.32 13.82L128.32 14L124.38 14L124.38 13.82ZM136.53 14.25Q133.69 14.23 131.90 12.43Q130.10 10.63 130.10 7.69Q130.10 4.75 131.90 2.95Q133.69 1.15 136.64 1.15L136.64 1.15Q139.05 1.15 140.90 2.37L140.90 2.37L141.26 4.91L141.10 4.91Q140.71 3.36 139.50 2.52Q138.29 1.69 136.64 1.69L136.64 1.69Q134.28 1.69 132.87 3.33Q131.45 4.96 131.45 7.66Q131.45 10.36 132.85 12.01Q134.24 13.66 136.53 13.71L136.53 13.71Q138.55 13.71 139.90 12.61L139.90 12.61Q141.35 11.43 141.66 8.74L141.66 8.74L141.80 8.74L141.59 11.57Q139.95 14.25 136.53 14.25L136.53 14.25ZM143.78 13.82L144.02 13.82Q144.49 13.82 144.82 13.49Q145.15 13.15 145.17 12.69L145.17 12.69L145.17 2.61Q145.17 2.17 144.83 1.88Q144.49 1.58 144.02 1.58L144.02 1.58L143.80 1.58L143.78 1.40L149.06 1.40Q149.62 1.40 150.27 1.29Q150.93 1.18 151.20 1.08L151.20 1.08L151.20 3.34L151.02 3.34L151.02 3.02Q151.02 2.59 150.72 2.28Q150.43 1.98 150.01 1.96L150.01 1.96L146.34 1.96L146.34 7.52L149.38 7.52Q149.74 7.50 149.99 7.25Q150.25 7.00 150.25 6.62L150.25 6.62L150.25 6.37L150.43 6.37L150.43 9.21L150.25 9.21L150.25 8.94Q150.25 8.58 150.00 8.33Q149.76 8.08 149.40 8.06L149.40 8.06L146.34 8.06L146.34 13.44L148.91 13.44Q150.25 13.44 150.95 12.85Q151.65 12.25 152.12 11.08L152.12 11.08L152.30 11.08L151.25 14L143.78 14L143.78 13.82ZM166.09 1.08L166.09 1.60L166.09 3.11L165.91 3.11L165.91 2.84Q165.91 2.48 165.65 2.22Q165.40 1.96 165.02 1.96L165.02 1.96L161.23 1.96L161.23 7.52L164.27 7.52Q164.63 7.50 164.88 7.25Q165.13 7.00 165.13 6.64L165.13 6.64L165.13 6.37L165.31 6.37L165.31 9.21L165.13 9.21L165.13 8.94Q165.13 8.58 164.89 8.33Q164.65 8.08 164.29 8.06L164.29 8.06L161.23 8.06L161.23 12.69Q161.23 13.15 161.57 13.49Q161.91 13.82 162.38 13.82L162.38 13.82L162.61 13.82L162.61 14L158.67 14L158.67 13.82L158.90 13.82Q159.37 13.82 159.71 13.49Q160.04 13.15 160.06 12.69L160.06 12.69L160.06 2.61Q160.06 2.17 159.71 1.88Q159.35 1.58 158.90 1.58L158.90 1.58L158.69 1.58L158.67 1.40L163.94 1.40Q164.50 1.40 165.16 1.29Q165.82 1.18 166.09 1.08L166.09 1.08ZM169.61 2.96Q171.54 1.15 174.61 1.15Q177.68 1.15 179.60 2.96Q181.53 4.77 181.53 7.70Q181.53 10.63 179.60 12.44Q177.68 14.25 174.61 14.25Q171.54 14.25 169.61 12.44Q167.69 10.63 167.69 7.70Q167.69 4.77 169.61 2.96ZM170.59 12.06Q172.12 13.71 174.60 13.71Q177.08 13.71 178.60 12.06Q180.13 10.40 180.13 7.70Q180.13 5.00 178.60 3.34Q177.08 1.69 174.60 1.69Q172.12 1.69 170.59 3.34Q169.07 5.00 169.07 7.70Q169.07 10.40 170.59 12.06ZM186.66 1.96L186.66 1.96L185.51 1.96L185.51 12.69Q185.51 13.15 185.84 13.49Q186.17 13.82 186.66 13.82L186.66 13.82L186.88 13.82L186.89 14L182.95 14L182.95 13.82L183.19 13.82Q183.65 13.82 183.99 13.50Q184.32 13.17 184.34 12.70L184.34 12.70L184.34 2.71Q184.32 2.25 183.99 1.91Q183.65 1.58 183.19 1.58L183.19 1.58L182.95 1.58L182.95 1.40L187.81 1.40Q189.45 1.40 190.39 2.31Q191.32 3.22 191.32 4.67Q191.32 6.12 190.43 7.17Q189.54 8.22 188.26 8.22L188.26 8.22Q188.53 8.35 188.90 8.72Q189.27 9.09 189.56 9.48L189.56 9.48Q191.11 11.70 191.57 12.21Q192.04 12.72 192.24 12.91Q192.44 13.10 192.67 13.28Q192.91 13.46 193.14 13.57L193.14 13.57Q193.66 13.82 194.26 13.82L194.26 13.82L194.26 14L193.27 14Q192.49 14 191.83 13.72Q191.16 13.44 190.83 13.14Q190.49 12.85 190.25 12.57Q190.01 12.29 188.91 10.71Q187.81 9.12 187.63 8.90Q187.45 8.67 187.25 8.46L187.25 8.46Q186.68 7.84 186.10 7.84L186.10 7.84L186.10 7.66Q186.25 7.68 186.48 7.68Q186.71 7.68 187.06 7.66L187.06 7.66Q189.29 7.61 189.86 5.79L189.86 5.79Q189.97 5.43 189.97 5.12Q189.97 4.80 189.97 4.71L189.97 4.71Q189.94 3.51 189.34 2.77Q188.75 2.03 187.74 1.98L187.74 1.98Q187.31 1.96 186.66 1.96ZM210.65 1.40L210.65 1.58L210.40 1.58Q209.86 1.58 209.38 1.88Q208.91 2.17 208.58 2.62L208.58 2.62L205.04 8.38L205.04 12.69Q205.04 13.15 205.37 13.49Q205.70 13.82 206.19 13.82L206.19 13.82L206.41 13.82L206.41 14L202.48 14L202.48 13.82L202.72 13.82Q203.18 13.82 203.52 13.50Q203.85 13.17 203.87 12.70L203.87 12.70L203.87 8.37L200.43 2.62Q200.16 2.19 199.66 1.89Q199.17 1.58 198.63 1.58L198.63 1.58L198.38 1.58L198.38 1.40L202.81 1.40L202.81 1.58L202.57 1.58Q202.18 1.58 201.96 1.94L201.96 1.94Q201.85 2.14 201.85 2.33Q201.85 2.52 201.94 2.70L201.94 2.70L204.64 7.74L207.52 2.68Q207.61 2.50 207.61 2.32Q207.61 2.14 207.49 1.94L207.49 1.94Q207.27 1.58 206.87 1.58L206.87 1.58L206.66 1.58L206.66 1.40L210.65 1.40ZM212.47 2.96Q214.40 1.15 217.47 1.15Q220.54 1.15 222.46 2.96Q224.39 4.77 224.39 7.70Q224.39 10.63 222.46 12.44Q220.54 14.25 217.47 14.25Q214.40 14.25 212.47 12.44Q210.55 10.63 210.55 7.70Q210.55 4.77 212.47 2.96ZM213.45 12.06Q214.97 13.71 217.46 13.71Q219.94 13.71 221.46 12.06Q222.98 10.40 222.98 7.70Q222.98 5.00 221.46 3.34Q219.94 1.69 217.46 1.69Q214.97 1.69 213.45 3.34Q211.93 5.00 211.93 7.70Q211.93 10.40 213.45 12.06ZM238.05 1.40L238.05 1.58L237.76 1.58Q237.38 1.58 237.10 1.82Q236.83 2.07 236.81 2.43L236.81 2.43L236.81 9.55Q236.81 11.66 235.48 12.96Q234.14 14.25 231.93 14.25Q229.72 14.25 228.34 12.96Q226.96 11.68 226.96 9.57L226.96 9.57L226.96 2.48Q226.96 1.94 226.49 1.69L226.49 1.69Q226.28 1.58 226.01 1.58L226.01 1.58L225.72 1.58L225.72 1.40L229.37 1.40L229.37 1.58L229.09 1.58Q228.69 1.58 228.42 1.82Q228.15 2.07 228.13 2.44L228.13 2.44L228.13 9.32Q228.13 11.28 229.19 12.49Q230.24 13.69 232.00 13.69Q233.77 13.69 234.86 12.55Q235.96 11.41 235.96 9.55L235.96 9.55L235.96 2.44Q235.94 2.07 235.67 1.82Q235.40 1.58 235.01 1.58L235.01 1.58L234.72 1.58L234.72 1.40L238.05 1.40ZM243.74 1.96L243.74 1.96L242.59 1.96L242.59 12.69Q242.59 13.15 242.92 13.49Q243.25 13.82 243.74 13.82L243.74 13.82L243.95 13.82L243.97 14L240.03 14L240.03 13.82L240.26 13.82Q240.73 13.82 241.06 13.50Q241.40 13.17 241.42 12.70L241.42 12.70L241.42 2.71Q241.40 2.25 241.06 1.91Q240.73 1.58 240.26 1.58L240.26 1.58L240.03 1.58L240.03 1.40L244.89 1.40Q246.53 1.40 247.46 2.31Q248.40 3.22 248.40 4.67Q248.40 6.12 247.51 7.17Q246.62 8.22 245.34 8.22L245.34 8.22Q245.61 8.35 245.98 8.72Q246.35 9.09 246.64 9.48L246.64 9.48Q248.18 11.70 248.65 12.21Q249.12 12.72 249.32 12.91Q249.52 13.10 249.75 13.28Q249.98 13.46 250.22 13.57L250.22 13.57Q250.74 13.82 251.33 13.82L251.33 13.82L251.33 14L250.34 14Q249.57 14 248.90 13.72Q248.24 13.44 247.91 13.14Q247.57 12.85 247.33 12.57Q247.09 12.29 245.99 10.71Q244.89 9.12 244.71 8.90Q244.53 8.67 244.33 8.46L244.33 8.46Q243.76 7.84 243.18 7.84L243.18 7.84L243.18 7.66Q243.32 7.68 243.56 7.68Q243.79 7.68 244.13 7.66L244.13 7.66Q246.37 7.61 246.94 5.79L246.94 5.79Q247.05 5.43 247.05 5.12Q247.05 4.80 247.05 4.71L247.05 4.71Q247.01 3.51 246.42 2.77Q245.83 2.03 244.82 1.98L244.82 1.98Q244.39 1.96 243.74 1.96ZM263.14 14.25Q260.30 14.23 258.51 12.43Q256.72 10.63 256.72 7.69Q256.72 4.75 258.51 2.95Q260.30 1.15 263.25 1.15L263.25 1.15Q265.66 1.15 267.52 2.37L267.52 2.37L267.88 4.91L267.71 4.91Q267.32 3.36 266.11 2.52Q264.91 1.69 263.25 1.69L263.25 1.69Q260.89 1.69 259.48 3.33Q258.07 4.96 258.07 7.66Q258.07 10.36 259.46 12.01Q260.86 13.66 263.14 13.71L263.14 13.71Q265.16 13.71 266.51 12.61L266.51 12.61Q267.97 11.43 268.27 8.74L268.27 8.74L268.42 8.74L268.20 11.57Q266.56 14.25 263.14 14.25L263.14 14.25ZM282.19 13.82L282.19 13.82L282.33 13.82L282.33 14L278.28 14L278.28 13.82L278.44 13.82Q278.82 13.82 279.01 13.58Q279.20 13.33 279.20 13.12Q279.20 12.90 279.13 12.69L279.13 12.69L277.97 9.63L273.11 9.63L271.91 12.70Q271.84 12.92 271.84 13.13Q271.84 13.33 272.02 13.58Q272.21 13.82 272.59 13.82L272.59 13.82L272.75 13.82L272.75 14L269.14 14L269.14 13.82L269.30 13.82Q269.75 13.82 270.18 13.53Q270.61 13.24 270.88 12.69L270.88 12.69L274.95 3.00Q275.62 1.54 275.62 1.15L275.62 1.15L275.78 1.15L280.60 12.69Q280.85 13.24 281.29 13.53Q281.72 13.82 282.19 13.82ZM275.60 3.31L273.33 9.09L277.76 9.09L275.60 3.31ZM286.92 1.96L286.92 1.96L285.77 1.96L285.77 12.69Q285.77 13.15 286.10 13.49Q286.43 13.82 286.92 13.82L286.92 13.82L287.14 13.82L287.15 14L283.21 14L283.21 13.82L283.45 13.82Q283.91 13.82 284.25 13.50Q284.58 13.17 284.60 12.70L284.60 12.70L284.60 2.71Q284.58 2.25 284.25 1.91Q283.91 1.58 283.45 1.58L283.45 1.58L283.21 1.58L283.21 1.40L288.07 1.40Q289.71 1.40 290.65 2.31Q291.58 3.22 291.58 4.67Q291.58 6.12 290.69 7.17Q289.80 8.22 288.52 8.22L288.52 8.22Q288.79 8.35 289.16 8.72Q289.53 9.09 289.82 9.48L289.82 9.48Q291.37 11.70 291.83 12.21Q292.30 12.72 292.50 12.91Q292.70 13.10 292.93 13.28Q293.17 13.46 293.40 13.57L293.40 13.57Q293.92 13.82 294.52 13.82L294.52 13.82L294.52 14L293.53 14Q292.75 14 292.09 13.72Q291.42 13.44 291.09 13.14Q290.75 12.85 290.51 12.57Q290.27 12.29 289.17 10.71Q288.07 9.12 287.89 8.90Q287.71 8.67 287.51 8.46L287.51 8.46Q286.94 7.84 286.36 7.84L286.36 7.84L286.36 7.66Q286.51 7.68 286.74 7.68Q286.97 7.68 287.32 7.66L287.32 7.66Q289.55 7.61 290.12 5.79L290.12 5.79Q290.23 5.43 290.23 5.12Q290.23 4.80 290.23 4.71L290.23 4.71Q290.20 3.51 289.60 2.77Q289.01 2.03 288.00 1.98L288.00 1.98Q287.57 1.96 286.92 1.96ZM294.86 13.82L295.09 13.82Q295.56 13.82 295.89 13.49Q296.23 13.15 296.24 12.69L296.24 12.69L296.24 2.61Q296.24 2.17 295.90 1.88Q295.56 1.58 295.09 1.58L295.09 1.58L294.88 1.58L294.86 1.40L300.13 1.40Q300.69 1.40 301.35 1.29Q302.00 1.18 302.27 1.08L302.27 1.08L302.27 3.34L302.09 3.34L302.09 3.02Q302.09 2.59 301.80 2.28Q301.50 1.98 301.09 1.96L301.09 1.96L297.41 1.96L297.41 7.52L300.46 7.52Q300.82 7.50 301.07 7.25Q301.32 7.00 301.32 6.62L301.32 6.62L301.32 6.37L301.50 6.37L301.50 9.21L301.32 9.21L301.32 8.94Q301.32 8.58 301.08 8.33Q300.83 8.08 300.47 8.06L300.47 8.06L297.41 8.06L297.41 13.44L299.99 13.44Q301.32 13.44 302.02 12.85Q302.72 12.25 303.19 11.08L303.19 11.08L303.37 11.08L302.33 14L294.86 14L294.86 13.82ZM305.06 13.82L305.30 13.82Q305.77 13.82 306.10 13.49Q306.43 13.15 306.45 12.69L306.45 12.69L306.45 2.61Q306.45 2.17 306.11 1.88Q305.77 1.58 305.30 1.58L305.30 1.58L305.08 1.58L305.06 1.40L310.34 1.40Q310.90 1.40 311.55 1.29Q312.21 1.18 312.48 1.08L312.48 1.08L312.48 3.34L312.30 3.34L312.30 3.02Q312.30 2.59 312.00 2.28Q311.71 1.98 311.29 1.96L311.29 1.96L307.62 1.96L307.62 7.52L310.66 7.52Q311.02 7.50 311.27 7.25Q311.53 7.00 311.53 6.62L311.53 6.62L311.53 6.37L311.71 6.37L311.71 9.21L311.53 9.21L311.53 8.94Q311.53 8.58 311.28 8.33Q311.04 8.08 310.68 8.06L310.68 8.06L307.62 8.06L307.62 13.44L310.19 13.44Q311.53 13.44 312.23 12.85Q312.93 12.25 313.40 11.08L313.40 11.08L313.58 11.08L312.53 14L305.06 14L305.06 13.82ZM318.98 1.96L318.98 1.96L317.83 1.96L317.83 12.69Q317.83 13.15 318.16 13.49Q318.49 13.82 318.98 13.82L318.98 13.82L319.19 13.82L319.21 14L315.27 14L315.27 13.82L315.50 13.82Q315.97 13.82 316.30 13.50Q316.64 13.17 316.66 12.70L316.66 12.70L316.66 2.71Q316.64 2.25 316.30 1.91Q315.97 1.58 315.50 1.58L315.50 1.58L315.27 1.58L315.27 1.40L320.13 1.40Q321.77 1.40 322.70 2.31Q323.64 3.22 323.64 4.67Q323.64 6.12 322.75 7.17Q321.86 8.22 320.58 8.22L320.58 8.22Q320.85 8.35 321.22 8.72Q321.59 9.09 321.88 9.48L321.88 9.48Q323.42 11.70 323.89 12.21Q324.36 12.72 324.56 12.91Q324.76 13.10 324.99 13.28Q325.22 13.46 325.46 13.57L325.46 13.57Q325.98 13.82 326.57 13.82L326.57 13.82L326.57 14L325.58 14Q324.81 14 324.14 13.72Q323.48 13.44 323.14 13.14Q322.81 12.85 322.57 12.57Q322.33 12.29 321.23 10.71Q320.13 9.12 319.95 8.90Q319.77 8.67 319.57 8.46L319.57 8.46Q319.00 7.84 318.42 7.84L318.42 7.84L318.42 7.66Q318.56 7.68 318.80 7.68Q319.03 7.68 319.37 7.66L319.37 7.66Q321.61 7.61 322.18 5.79L322.18 5.79Q322.29 5.43 322.29 5.12Q322.29 4.80 322.29 4.71L322.29 4.71Q322.25 3.51 321.66 2.77Q321.07 2.03 320.06 1.98L320.06 1.98Q319.63 1.96 318.98 1.96Z"></path></svg></svg>